<svg id="bt1" xmlns="http://www.w3.org/2000/svg" xmlns:xlink="http://www.w3.org/1999/xlink" width="56" height="56" viewBox="0 0 56 56">
  <defs>
    <filter id="다각형_1" x="10" y="2" width="42" height="52" filterUnits="userSpaceOnUse">
      <feOffset input="SourceAlpha"/>
      <feGaussianBlur stdDeviation="4" result="blur"/>
      <feFlood flood-color="#5d21d8" flood-opacity="0.541"/>
      <feComposite operator="in" in2="blur"/>
      <feComposite in="SourceGraphic"/>
    </filter>
  </defs>
  <path id="패스_4439" data-name="패스 4439" d="M28,0A28,28,0,1,1,0,28,28,28,0,0,1,28,0Z" fill="#5d21d8"/>
  <g transform="matrix(1, 0, 0, 1, 0, 0)" filter="url(#다각형_1)">
    <path id="다각형_1-2" data-name="다각형 1" d="M12.421,2.03a2,2,0,0,1,3.157,0l9.911,12.742A2,2,0,0,1,23.911,18H4.089a2,2,0,0,1-1.579-3.228Z" transform="translate(40 14) rotate(90)" fill="#fff"/>
  </g>
  <g id="그룹_28531" data-name="그룹 28531" transform="translate(-1472 -3915)" opacity="0">
    <path id="패스_4437" data-name="패스 4437" d="M1490.605,3931.57v20" transform="translate(3.395 1.43)" fill="none" stroke="#fff" stroke-linecap="round" stroke-width="4"/>
    <path id="패스_4438" data-name="패스 4438" d="M1490.605,3931.57v20" transform="translate(15.395 1.43)" fill="none" stroke="#fff" stroke-linecap="round" stroke-width="4"/>
  </g>
</svg>
