<svg xmlns="http://www.w3.org/2000/svg" width="260" height="49" viewBox="0 0 260 49">
  <g id="그룹_28527" data-name="그룹 28527" transform="translate(-139.999 -31.988)" opacity="0.68">
    <g id="사각형_43562" data-name="사각형 43562" transform="translate(140.133 31.988)" fill="#707070" stroke="#707070" stroke-width="1" opacity="0">
      <rect width="259.867" height="49" stroke="none"/>
      <rect x="0.5" y="0.5" width="258.867" height="48" fill="none"/>
    </g>
    <g id="그룹_28517" data-name="그룹 28517" transform="translate(139.999 41.181)">
      <g id="그룹_1891" data-name="그룹 1891" transform="translate(0 0)">
        <g id="그룹_1888" data-name="그룹 1888">
          <g id="그룹_1887" data-name="그룹 1887">
            <path id="패스_3535" data-name="패스 3535" d="M428.24,187.888h-3.185c-.386-.009-.723-.012-.957,0l-6.354,11.188,1.292,2.252a.907.907,0,0,0,1.575,0l5.623-9.9h0Z" transform="translate(-402.282 -179.917)" fill="#707070"/>
            <path id="패스_3536" data-name="패스 3536" d="M333.735,153.195l-.153.211A10.877,10.877,0,0,1,314.72,142.86l6.27,11.041a.907.907,0,0,0,1.574,0l4.7-8.174.6-1.037-.909-2.714a.907.907,0,0,0-1.647-.162l-3.528,6.173-4.832-8.508a10.85,10.85,0,0,1,13.491-1.7c.306.183.6.4.893.613.095.072.189.144.282.218.209.165.414.337.612.518h4.121c-.855-2.718-3.577-4.515-6.087-5.549a14.523,14.523,0,0,0-3.1-.89,14.314,14.314,0,0,0-2.4-.2,14.56,14.56,0,1,0,12.819,21.457l.406-.752Z" transform="translate(-310.198 -132.49)" fill="#707070"/>
          </g>
        </g>
        <g id="그룹_1890" data-name="그룹 1890" transform="translate(38.39 4.749)">
          <path id="패스_3537" data-name="패스 3537" d="M174.022,376.761a5.977,5.977,0,0,1-2.508,1.383,8.037,8.037,0,0,1-4.463.11,3.61,3.61,0,0,1-1.363-.807,4.043,4.043,0,0,1-.962-1.479,6.27,6.27,0,0,1-.371-2.3v-1.865a7.27,7.27,0,0,1,.4-2.624,4.148,4.148,0,0,1,1-1.551,3.2,3.2,0,0,1,1.353-.752,8.614,8.614,0,0,1,4.146.055,6.367,6.367,0,0,1,2.289,1.132l.424.315,2.566-3.214-.373-.264a10.883,10.883,0,0,0-3.41-1.641,15.368,15.368,0,0,0-3.991-.473,12.572,12.572,0,0,0-3.515.476,8.079,8.079,0,0,0-2.916,1.522,7.229,7.229,0,0,0-1.966,2.605,8.86,8.86,0,0,0-.708,3.683v3.251a8.468,8.468,0,0,0,.725,3.652,7.175,7.175,0,0,0,1.968,2.526,7.978,7.978,0,0,0,2.874,1.458,12.486,12.486,0,0,0,3.367.449c.585,0,1.215-.026,1.872-.077a11.655,11.655,0,0,0,2.073-.358,13.068,13.068,0,0,0,2.1-.763,8.447,8.447,0,0,0,2.052-1.353l.3-.265-2.536-3.224Z" transform="translate(-159.654 -362.791)" fill="#707070"/>
          <path id="패스_3538" data-name="패스 3538" d="M233.252,364.735a8.4,8.4,0,0,0-2.97-1.479,13.4,13.4,0,0,0-6.961,0,8.416,8.416,0,0,0-2.971,1.479,7.118,7.118,0,0,0-2.03,2.595,8.857,8.857,0,0,0-.738,3.776v3a9.012,9.012,0,0,0,.738,3.813,7.039,7.039,0,0,0,2.017,2.6,8.2,8.2,0,0,0,2.96,1.456,13.936,13.936,0,0,0,7.01,0,8.215,8.215,0,0,0,2.96-1.456,7.043,7.043,0,0,0,2.017-2.6,9.007,9.007,0,0,0,.738-3.813v-3a8.857,8.857,0,0,0-.738-3.776A7.128,7.128,0,0,0,233.252,364.735ZM225,378.349a3.31,3.31,0,0,1-1.384-.731,3.7,3.7,0,0,1-.964-1.466,6.892,6.892,0,0,1-.372-2.451v-2.192a6.894,6.894,0,0,1,.372-2.451,3.706,3.706,0,0,1,.964-1.466,3.31,3.31,0,0,1,1.384-.731,7.091,7.091,0,0,1,1.8-.221,7.216,7.216,0,0,1,1.827.221,3.357,3.357,0,0,1,1.384.731,3.579,3.579,0,0,1,.947,1.461,7.146,7.146,0,0,1,.36,2.456V373.7a7.155,7.155,0,0,1-.36,2.455,3.592,3.592,0,0,1-.948,1.461,3.316,3.316,0,0,1-1.385.732A7.554,7.554,0,0,1,225,378.349Z" transform="translate(-198.504 -362.794)" fill="#707070"/>
          <path id="패스_3539" data-name="패스 3539" d="M383.451,364.735a8.407,8.407,0,0,0-2.97-1.479,13.4,13.4,0,0,0-6.961,0,8.413,8.413,0,0,0-2.971,1.479,7.119,7.119,0,0,0-2.03,2.595,8.852,8.852,0,0,0-.738,3.776v3a9.008,9.008,0,0,0,.738,3.813,7.039,7.039,0,0,0,2.017,2.6,8.208,8.208,0,0,0,2.96,1.456,13.937,13.937,0,0,0,7.01,0,8.214,8.214,0,0,0,2.96-1.456,7.041,7.041,0,0,0,2.017-2.6,9.007,9.007,0,0,0,.738-3.813v-3a8.857,8.857,0,0,0-.738-3.776A7.129,7.129,0,0,0,383.451,364.735ZM375.2,378.349a3.313,3.313,0,0,1-1.384-.731,3.707,3.707,0,0,1-.964-1.466,6.893,6.893,0,0,1-.373-2.451v-2.192a6.9,6.9,0,0,1,.373-2.451,3.709,3.709,0,0,1,.964-1.466,3.311,3.311,0,0,1,1.384-.731,7.091,7.091,0,0,1,1.8-.221,7.218,7.218,0,0,1,1.827.221,3.353,3.353,0,0,1,1.384.731,3.579,3.579,0,0,1,.948,1.461,7.146,7.146,0,0,1,.36,2.456V373.7a7.157,7.157,0,0,1-.36,2.455,3.59,3.59,0,0,1-.948,1.461,3.313,3.313,0,0,1-1.385.732A7.554,7.554,0,0,1,375.2,378.349Z" transform="translate(-299.236 -362.794)" fill="#707070"/>
          <path id="패스_3540" data-name="패스 3540" d="M447.58,378.124q-.888-1.759-1.81-3.55a5.36,5.36,0,0,0,2.164-1.752,4.834,4.834,0,0,0,.875-2.819v-.932a4.978,4.978,0,0,0-.484-2.179,4.863,4.863,0,0,0-1.417-1.737,6.962,6.962,0,0,0-2.256-1.121,10.375,10.375,0,0,0-3.007-.4H433.34V382.7h4.674v-7.283h3.351l3.456,7.283h5.1l-.328-.635Q448.564,380.077,447.58,378.124Zm-9.566-10.9h3.175a3.755,3.755,0,0,1,2.335.545,1.723,1.723,0,0,1,.641,1.4v.756a1.621,1.621,0,0,1-.67,1.352,4.594,4.594,0,0,1-2.62.543h-2.861Z" transform="translate(-343.204 -363.355)" fill="#707070"/>
          <path id="패스_3541" data-name="패스 3541" d="M554.709,374.711h9.025v-3.518h-9.025V367.2h9.625v-3.569h-14.27V382.7h14.47v-3.569h-9.825Z" transform="translate(-421.486 -363.355)" fill="#707070"/>
          <path id="패스_3542" data-name="패스 3542" d="M619.908,382.065q-1.028-1.988-2.012-3.941-.888-1.759-1.811-3.55a5.36,5.36,0,0,0,2.165-1.752,4.834,4.834,0,0,0,.875-2.819v-.932a4.983,4.983,0,0,0-.483-2.179,4.863,4.863,0,0,0-1.417-1.737,6.961,6.961,0,0,0-2.256-1.121,10.376,10.376,0,0,0-3.008-.4h-8.306V382.7h4.674v-7.283h3.351l3.456,7.283h5.1ZM608.33,367.226h3.176a3.754,3.754,0,0,1,2.335.545,1.723,1.723,0,0,1,.641,1.4v.756a1.622,1.622,0,0,1-.67,1.352,4.593,4.593,0,0,1-2.62.543H608.33Z" transform="translate(-457.428 -363.355)" fill="#707070"/>
          <path id="패스_3543" data-name="패스 3543" d="M500.629,372.121l8.441-8.489h-5.584l-7.369,7.555v-7.555h-4.674V382.7h4.674v-6.247l1.352-1.3,6.015,7.547h5.892Z" transform="translate(-382.171 -363.355)" fill="#707070"/>
          <g id="그룹_1889" data-name="그룹 1889" transform="translate(38.143 1.342)">
            <path id="패스_3544" data-name="패스 3544" d="M336.541,366.875h-3.947c-.478-.01-.9-.015-1.186,0l-8.332,14.637,1.6,2.791a1.123,1.123,0,0,0,1.951,0l6.969-12.271h0Z" transform="translate(-307.396 -366.865)" fill="#707070"/>
            <path id="패스_3545" data-name="패스 3545" d="M285.36,384.3a1.124,1.124,0,0,0,1.951.005l5.825-10.129.739-1.285-1.126-3.363a1.123,1.123,0,0,0-2.041-.2l-4.372,7.649L280.6,366.865h-5.135Z" transform="translate(-275.469 -366.865)" fill="#707070"/>
          </g>
        </g>
      </g>
      <g id="그룹_1892" data-name="그룹 1892" transform="translate(208.756 7.823)">
        <path id="패스_3546" data-name="패스 3546" d="M332.332,448.777h3.315l.851,6.14.543,4.274h.072c.254-1.431.525-2.879.8-4.274l1.376-6.14H342l1.413,6.14c.272,1.377.507,2.825.779,4.274h.091c.163-1.449.344-2.879.507-4.274l.869-6.14h3.079L346.4,462.252h-4.075l-1.213-5.868c-.218-1.032-.4-2.119-.525-3.133H340.5c-.163,1.014-.326,2.1-.525,3.133l-1.177,5.868h-4Z" transform="translate(-332.332 -448.777)" fill="#707070"/>
        <path id="패스_3547" data-name="패스 3547" d="M401.467,448.777h8.548v2.68h-5.307v2.5h4.51v2.717h-4.51v2.861h5.506v2.717h-8.748Z" transform="translate(-378.698 -448.777)" fill="#707070"/>
        <path id="패스_3548" data-name="패스 3548" d="M449.866,448.777h4.709c2.789,0,5.017.743,5.017,3.332a3.147,3.147,0,0,1-1.757,2.916v.072a3.057,3.057,0,0,1,2.39,3.17c0,2.753-2.336,3.984-5.27,3.984h-5.089Zm4.582,5.343c1.376,0,1.992-.6,1.992-1.521,0-.96-.634-1.358-1.992-1.358h-1.34v2.879Zm.272,5.651c1.557,0,2.354-.561,2.354-1.72,0-1.1-.779-1.539-2.354-1.539h-1.612v3.26Z" transform="translate(-411.157 -448.777)" fill="#707070"/>
      </g>
    </g>
  </g>
</svg>
