<svg xmlns="http://www.w3.org/2000/svg" width="304.001" height="56" viewBox="0 0 304.001 56">
  <g id="logo" transform="translate(-139.999 -32)">
    <g id="사각형_43562" data-name="사각형 43562" transform="translate(140 32)" fill="#fff" stroke="#707070" stroke-width="1" opacity="0">
      <rect width="304" height="56" stroke="none"/>
      <rect x="0.5" y="0.5" width="303" height="55" fill="none"/>
    </g>
    <g id="그룹_28517" data-name="그룹 28517" transform="translate(139.999 42.649)">
      <g id="그룹_1891" data-name="그룹 1891" transform="translate(0 0)">
        <g id="그룹_1888" data-name="그룹 1888" transform="translate(0)">
          <g id="그룹_1887" data-name="그룹 1887">
            <path id="패스_3535" data-name="패스 3535" d="M429.91,187.89h-3.692c-.447-.01-.838-.014-1.11,0l-7.365,12.968,1.5,2.611a1.051,1.051,0,0,0,1.826,0l6.518-11.478h0Z" transform="translate(-399.821 -178.65)" fill="#d47645"/>
            <path id="패스_3536" data-name="패스 3536" d="M337.48,156.489l-.177.245a12.607,12.607,0,0,1-21.864-12.224l7.267,12.8a1.051,1.051,0,0,0,1.825.005l5.449-9.475.691-1.2-1.053-3.146a1.051,1.051,0,0,0-1.909-.188l-4.09,7.155-5.6-9.862a12.576,12.576,0,0,1,15.637-1.969c.355.212.7.463,1.036.71.11.083.219.167.327.253.243.192.48.39.709.6H340.5c-.991-3.151-4.147-5.233-7.055-6.432a16.832,16.832,0,0,0-3.588-1.031,16.593,16.593,0,0,0-2.787-.236,16.877,16.877,0,1,0,14.859,24.871l.471-.872Z" transform="translate(-310.198 -132.49)" fill="#044777"/>
          </g>
        </g>
        <g id="그룹_1890" data-name="그룹 1890" transform="translate(44.498 5.505)">
          <path id="패스_3537" data-name="패스 3537" d="M176.308,378.984a6.928,6.928,0,0,1-2.907,1.6,9.317,9.317,0,0,1-5.173.128,4.185,4.185,0,0,1-1.58-.935,4.686,4.686,0,0,1-1.115-1.714,7.267,7.267,0,0,1-.43-2.661v-2.162a8.427,8.427,0,0,1,.464-3.042,4.808,4.808,0,0,1,1.159-1.8,3.7,3.7,0,0,1,1.569-.871,9.984,9.984,0,0,1,4.806.064,7.381,7.381,0,0,1,2.653,1.312l.492.365,2.974-3.726-.433-.306a12.614,12.614,0,0,0-3.953-1.9,17.813,17.813,0,0,0-4.626-.548,14.57,14.57,0,0,0-4.075.552,9.364,9.364,0,0,0-3.38,1.765,8.38,8.38,0,0,0-2.279,3.02,10.27,10.27,0,0,0-.821,4.269v3.768a9.816,9.816,0,0,0,.84,4.233,8.317,8.317,0,0,0,2.281,2.928,9.248,9.248,0,0,0,3.331,1.69,14.472,14.472,0,0,0,3.9.521c.678,0,1.409-.03,2.17-.089a13.508,13.508,0,0,0,2.4-.415,15.145,15.145,0,0,0,2.437-.885,9.79,9.79,0,0,0,2.379-1.569l.348-.307-2.939-3.737Z" transform="translate(-159.654 -362.791)" fill="#044777"/>
          <path id="패스_3538" data-name="패스 3538" d="M235.746,365.044a9.742,9.742,0,0,0-3.443-1.714,15.539,15.539,0,0,0-8.068,0,9.755,9.755,0,0,0-3.443,1.714,8.249,8.249,0,0,0-2.353,3.008,10.266,10.266,0,0,0-.856,4.377V375.9a10.446,10.446,0,0,0,.855,4.419,8.16,8.16,0,0,0,2.338,3.008,9.509,9.509,0,0,0,3.431,1.687,16.154,16.154,0,0,0,8.125,0,9.522,9.522,0,0,0,3.431-1.687,8.163,8.163,0,0,0,2.338-3.008,10.439,10.439,0,0,0,.855-4.419v-3.476a10.265,10.265,0,0,0-.856-4.377A8.262,8.262,0,0,0,235.746,365.044Zm-9.561,15.78a3.836,3.836,0,0,1-1.6-.848,4.292,4.292,0,0,1-1.117-1.7,7.989,7.989,0,0,1-.432-2.841V372.9a7.991,7.991,0,0,1,.432-2.841,4.3,4.3,0,0,1,1.117-1.7,3.838,3.838,0,0,1,1.6-.847,8.221,8.221,0,0,1,2.084-.256,8.367,8.367,0,0,1,2.117.256,3.892,3.892,0,0,1,1.6.847,4.148,4.148,0,0,1,1.1,1.693,8.283,8.283,0,0,1,.418,2.846v2.541a8.292,8.292,0,0,1-.417,2.846,4.163,4.163,0,0,1-1.1,1.694,3.843,3.843,0,0,1-1.605.848A8.756,8.756,0,0,1,226.185,380.824Z" transform="translate(-195.468 -362.794)" fill="#464647"/>
          <path id="패스_3539" data-name="패스 3539" d="M385.945,365.044a9.745,9.745,0,0,0-3.443-1.714,15.538,15.538,0,0,0-8.068,0,9.752,9.752,0,0,0-3.443,1.714,8.25,8.25,0,0,0-2.353,3.008,10.261,10.261,0,0,0-.856,4.377V375.9a10.441,10.441,0,0,0,.855,4.419,8.158,8.158,0,0,0,2.337,3.008,9.514,9.514,0,0,0,3.431,1.687,16.155,16.155,0,0,0,8.126,0,9.521,9.521,0,0,0,3.43-1.687,8.16,8.16,0,0,0,2.338-3.008,10.44,10.44,0,0,0,.855-4.419v-3.476a10.266,10.266,0,0,0-.856-4.377A8.262,8.262,0,0,0,385.945,365.044Zm-9.561,15.78a3.84,3.84,0,0,1-1.6-.848,4.3,4.3,0,0,1-1.117-1.7,7.989,7.989,0,0,1-.432-2.841V372.9a7.991,7.991,0,0,1,.432-2.841,4.3,4.3,0,0,1,1.117-1.7,3.839,3.839,0,0,1,1.6-.847,8.221,8.221,0,0,1,2.084-.256,8.369,8.369,0,0,1,2.117.256,3.888,3.888,0,0,1,1.6.847,4.149,4.149,0,0,1,1.1,1.693,8.285,8.285,0,0,1,.418,2.846v2.541a8.3,8.3,0,0,1-.417,2.846,4.161,4.161,0,0,1-1.1,1.694,3.84,3.84,0,0,1-1.6.848A8.756,8.756,0,0,1,376.384,380.824Z" transform="translate(-288.33 -362.794)" fill="#464647"/>
          <path id="패스_3540" data-name="패스 3540" d="M449.846,380.43q-1.029-2.039-2.1-4.115a6.212,6.212,0,0,0,2.509-2.031,5.6,5.6,0,0,0,1.014-3.267v-1.081a5.769,5.769,0,0,0-.56-2.526,5.637,5.637,0,0,0-1.642-2.013,8.069,8.069,0,0,0-2.615-1.3,12.026,12.026,0,0,0-3.486-.467H433.34v22.1h5.417v-8.442h3.884l4.006,8.442h5.911l-.38-.736Q450.987,382.693,449.846,380.43ZM438.757,367.8h3.68a4.352,4.352,0,0,1,2.707.631,2,2,0,0,1,.743,1.623v.876a1.879,1.879,0,0,1-.777,1.567,5.325,5.325,0,0,1-3.037.629h-3.316Z" transform="translate(-328.862 -363.311)" fill="#044777"/>
          <path id="패스_3541" data-name="패스 3541" d="M555.448,376.474h10.461V372.4H555.448v-4.626H566.6v-4.137h-16.54v22.1h16.772V381.6H555.448Z" transform="translate(-401.028 -363.311)" fill="#044777"/>
          <path id="패스_3542" data-name="패스 3542" d="M622.494,385q-1.191-2.3-2.332-4.568-1.029-2.039-2.1-4.115a6.213,6.213,0,0,0,2.509-2.031,5.6,5.6,0,0,0,1.014-3.267v-1.081a5.776,5.776,0,0,0-.56-2.526,5.638,5.638,0,0,0-1.642-2.013,8.069,8.069,0,0,0-2.615-1.3,12.027,12.027,0,0,0-3.487-.467h-9.627v22.1h5.417v-8.442h3.885l4.006,8.442h5.911Zm-13.421-17.2h3.681a4.351,4.351,0,0,1,2.706.631,2,2,0,0,1,.743,1.623v.876a1.88,1.88,0,0,1-.777,1.567,5.324,5.324,0,0,1-3.037.629h-3.317Z" transform="translate(-434.162 -363.311)" fill="#044777"/>
          <path id="패스_3543" data-name="패스 3543" d="M502.09,373.471l9.784-9.84H505.4l-8.541,8.757v-8.757h-5.417v22.1h5.417v-7.241l1.567-1.507,6.972,8.748h6.83Z" transform="translate(-364.785 -363.311)" fill="#044777"/>
          <g id="그룹_1889" data-name="그룹 1889" transform="translate(44.211 1.555)">
            <path id="패스_3544" data-name="패스 3544" d="M338.683,366.876h-4.575c-.554-.012-1.038-.018-1.375,0l-9.658,16.965,1.855,3.235a1.3,1.3,0,0,0,2.262,0l8.077-14.223h0Z" transform="translate(-304.902 -366.865)" fill="#d47645"/>
            <path id="패스_3545" data-name="패스 3545" d="M286.933,387.074a1.3,1.3,0,0,0,2.261.006l6.752-11.741.857-1.49-1.306-3.9a1.3,1.3,0,0,0-2.365-.232l-5.068,8.866-6.644-11.72h-5.952Z" transform="translate(-275.469 -366.865)" fill="#044777"/>
          </g>
        </g>
      </g>
      <g id="그룹_1892" data-name="그룹 1892" transform="translate(241.971 9.068)">
        <path id="패스_3546" data-name="패스 3546" d="M332.332,448.777h3.842l.986,7.116.63,4.954h.084c.294-1.658.609-3.338.924-4.954l1.6-7.116h3.149l1.638,7.116c.315,1.6.588,3.275.9,4.954h.105c.189-1.679.4-3.338.588-4.954l1.008-7.116h3.569L348.643,464.4H343.92l-1.406-6.8c-.252-1.2-.462-2.456-.609-3.632h-.1c-.189,1.175-.378,2.435-.609,3.632l-1.364,6.8h-4.64Z" transform="translate(-332.332 -448.777)" fill="#d47645"/>
        <path id="패스_3547" data-name="패스 3547" d="M401.467,448.777h9.908v3.107h-6.151v2.9h5.227v3.149h-5.227v3.317h6.382V464.4h-10.14Z" transform="translate(-375.075 -448.777)" fill="#d47645"/>
        <path id="패스_3548" data-name="패스 3548" d="M449.866,448.777h5.458c3.233,0,5.815.861,5.815,3.862a3.648,3.648,0,0,1-2.036,3.38v.084a3.543,3.543,0,0,1,2.771,3.674c0,3.191-2.708,4.618-6.109,4.618h-5.9Zm5.311,6.193c1.6,0,2.309-.693,2.309-1.763,0-1.112-.735-1.574-2.309-1.574h-1.553v3.338Zm.315,6.55c1.805,0,2.729-.65,2.729-1.994,0-1.28-.9-1.784-2.729-1.784h-1.868v3.778Z" transform="translate(-404.998 -448.777)" fill="#d47645"/>
      </g>
    </g>
  </g>
</svg>
