<svg xmlns="http://www.w3.org/2000/svg" width="200.4" height="200.4" viewBox="0 0 200.4 200.4">
    <g data-name="그룹 82036">
        <g data-name="사각형 82141" transform="translate(.2 .2)" style="stroke:#292d33;stroke-width:.2px;fill:none">
            <rect width="200" height="200" rx="100" style="stroke:none"/>
            <rect x="-.1" y="-.1" width="200.2" height="200.2" rx="100.1" style="fill:none"/>
        </g>
        <g data-name="사각형 86779" transform="translate(6.2 6.2)" style="stroke:#292d33;stroke-width:.2px;fill:none">
            <rect width="188" height="188" rx="94" style="stroke:none"/>
            <rect x="-.1" y="-.1" width="188.2" height="188.2" rx="94.1" style="fill:none"/>
        </g>
        <g data-name="사각형 82147" transform="translate(12.2 12.2)" style="stroke:#292d33;stroke-width:.2px;fill:none">
            <rect width="176" height="176" rx="88" style="stroke:none"/>
            <rect x="-.1" y="-.1" width="176.2" height="176.2" rx="88.1" style="fill:none"/>
        </g>
        <g data-name="사각형 82148" transform="translate(18.2 18.2)" style="stroke:#292d33;stroke-width:.2px;fill:none">
            <rect width="164" height="164" rx="82" style="stroke:none"/>
            <rect x="-.1" y="-.1" width="164.2" height="164.2" rx="82.1" style="fill:none"/>
        </g>
        <g data-name="사각형 82149" transform="translate(24.2 24.2)" style="stroke:#292d33;stroke-width:.2px;fill:none">
            <rect width="152" height="152" rx="76" style="stroke:none"/>
            <rect x="-.1" y="-.1" width="152.2" height="152.2" rx="76.1" style="fill:none"/>
        </g>
        <g data-name="사각형 82150" transform="translate(30.2 30.2)" style="stroke:#292d33;stroke-width:.2px;fill:none">
            <rect width="140" height="140" rx="70" style="stroke:none"/>
            <rect x="-.1" y="-.1" width="140.2" height="140.2" rx="70.1" style="fill:none"/>
        </g>
        <g data-name="사각형 82151" transform="translate(36.2 36.2)" style="stroke:#292d33;stroke-width:.2px;fill:none">
            <rect width="128" height="128" rx="64" style="stroke:none"/>
            <rect x="-.1" y="-.1" width="128.2" height="128.2" rx="64.1" style="fill:none"/>
        </g>
        <g data-name="사각형 86780" transform="translate(42.2 42.2)" style="stroke:#292d33;stroke-width:.2px;fill:none">
            <rect width="116" height="116" rx="58" style="stroke:none"/>
            <rect x="-.1" y="-.1" width="116.2" height="116.2" rx="58.1" style="fill:none"/>
        </g>
        <g data-name="사각형 86781" transform="translate(48.2 48.2)" style="stroke:#292d33;stroke-width:.2px;fill:none">
            <rect width="104" height="104" rx="52" style="stroke:none"/>
            <rect x="-.1" y="-.1" width="104.2" height="104.2" rx="52.1" style="fill:none"/>
        </g>
        <g data-name="사각형 86782" transform="translate(54.2 54.2)" style="stroke:#292d33;stroke-width:.2px;fill:none">
            <rect width="92" height="92" rx="46" style="stroke:none"/>
            <rect x="-.1" y="-.1" width="92.2" height="92.2" rx="46.1" style="fill:none"/>
        </g>
    </g>
</svg>
