<svg id="footerLOGO" xmlns="http://www.w3.org/2000/svg" width="226" height="29.798">
    <defs>
        <style>
            .cls-1{fill:#d47645}.cls-2{fill:#044777}.cls-3{fill:#464647}
        </style>
    </defs>
    <g id="그룹_2274" data-name="그룹 2274">
        <path id="패스_3478" data-name="패스 3478" class="cls-1" d="M1283.289 982.72h-3.26c-.394-.009-.74-.013-.98 0l-6.5 11.449 1.322 2.3a.928.928 0 0 0 1.611 0l5.754-10.133z" transform="translate(-1256.726 -974.563)"/>
        <path id="패스_3479" data-name="패스 3479" class="cls-2" d="m1247.688 978.689-.156.216a11.13 11.13 0 0 1-19.3-10.792l6.416 11.3a.928.928 0 0 0 1.611 0l4.81-8.364.61-1.061-.93-2.777a.928.928 0 0 0-1.685-.166l-3.611 6.317-4.945-8.707a11.1 11.1 0 0 1 13.8-1.738 11.48 11.48 0 0 1 1.203.85c.214.169.424.345.626.53h4.217c-.874-2.781-3.661-4.62-6.228-5.679a14.875 14.875 0 0 0-3.167-.91 14.668 14.668 0 0 0-2.46-.208 14.9 14.9 0 1 0 13.118 21.956l.416-.77z" transform="translate(-1223.603 -957.503)"/>
    </g>
    <g id="그룹_2277" data-name="그룹 2277" transform="translate(31.465 5.699)">
        <g id="그룹_2276" data-name="그룹 2276">
            <path id="패스_3480" data-name="패스 3480" class="cls-2" d="M1334.411 988.232a5.607 5.607 0 0 1-2.351 1.3 7.537 7.537 0 0 1-4.185.1 3.381 3.381 0 0 1-1.278-.756 3.791 3.791 0 0 1-.9-1.387 5.875 5.875 0 0 1-.348-2.153v-1.749a6.815 6.815 0 0 1 .376-2.461 3.889 3.889 0 0 1 .938-1.454 2.994 2.994 0 0 1 1.269-.7 8.071 8.071 0 0 1 3.888.051 5.967 5.967 0 0 1 2.146 1.062l.4.295 2.406-3.014-.35-.247a10.212 10.212 0 0 0-3.2-1.539 14.4 14.4 0 0 0-3.742-.443 11.793 11.793 0 0 0-3.3.446 7.57 7.57 0 0 0-2.734 1.427 6.777 6.777 0 0 0-1.844 2.443 8.309 8.309 0 0 0-.664 3.453v3.049a7.941 7.941 0 0 0 .68 3.425 6.725 6.725 0 0 0 1.845 2.368 7.466 7.466 0 0 0 2.7 1.367 11.7 11.7 0 0 0 3.157.422c.549 0 1.14-.024 1.756-.072a10.883 10.883 0 0 0 1.943-.336 12.192 12.192 0 0 0 1.972-.715 7.932 7.932 0 0 0 1.925-1.269l.282-.249-2.378-3.024z" transform="translate(-1320.938 -975.132)"/>
            <path id="패스_3481" data-name="패스 3481" class="cls-3" d="M1390.973 976.955a7.881 7.881 0 0 0-2.785-1.387 12.567 12.567 0 0 0-6.527 0 7.88 7.88 0 0 0-2.786 1.387 6.678 6.678 0 0 0-1.9 2.433 8.306 8.306 0 0 0-.692 3.541v2.812a8.444 8.444 0 0 0 .692 3.575 6.6 6.6 0 0 0 1.891 2.434 7.688 7.688 0 0 0 2.776 1.365 13.062 13.062 0 0 0 6.574 0 7.7 7.7 0 0 0 2.775-1.365 6.6 6.6 0 0 0 1.891-2.434 8.45 8.45 0 0 0 .692-3.575v-2.812a8.306 8.306 0 0 0-.692-3.541 6.684 6.684 0 0 0-1.909-2.433zm-7.734 12.766a3.1 3.1 0 0 1-1.3-.686 3.472 3.472 0 0 1-.9-1.374 6.456 6.456 0 0 1-.349-2.3v-2.056a6.46 6.46 0 0 1 .349-2.3 3.481 3.481 0 0 1 .9-1.375 3.1 3.1 0 0 1 1.3-.685 6.65 6.65 0 0 1 1.686-.207 6.766 6.766 0 0 1 1.713.207 3.148 3.148 0 0 1 1.3.685 3.361 3.361 0 0 1 .888 1.37 6.7 6.7 0 0 1 .338 2.3v2.056a6.714 6.714 0 0 1-.337 2.3 3.368 3.368 0 0 1-.889 1.37 3.109 3.109 0 0 1-1.3.686 7.086 7.086 0 0 1-3.399.009z" transform="translate(-1358.389 -975.136)"/>
            <path id="패스_3482" data-name="패스 3482" class="cls-3" d="M1534.464 976.955a7.88 7.88 0 0 0-2.785-1.387 12.568 12.568 0 0 0-6.527 0 7.878 7.878 0 0 0-2.786 1.387 6.676 6.676 0 0 0-1.9 2.433 8.3 8.3 0 0 0-.692 3.541v2.812a8.44 8.44 0 0 0 .692 3.575 6.592 6.592 0 0 0 1.891 2.434 7.683 7.683 0 0 0 2.776 1.365 13.062 13.062 0 0 0 6.574 0 7.7 7.7 0 0 0 2.775-1.365 6.607 6.607 0 0 0 1.891-2.434 8.444 8.444 0 0 0 .692-3.575v-2.812a8.306 8.306 0 0 0-.692-3.541 6.687 6.687 0 0 0-1.909-2.433zm-7.735 12.766a3.1 3.1 0 0 1-1.3-.686 3.474 3.474 0 0 1-.9-1.374 6.467 6.467 0 0 1-.349-2.3v-2.056a6.471 6.471 0 0 1 .349-2.3 3.482 3.482 0 0 1 .9-1.375 3.1 3.1 0 0 1 1.3-.685 6.648 6.648 0 0 1 1.686-.207 6.766 6.766 0 0 1 1.712.207 3.147 3.147 0 0 1 1.3.685 3.357 3.357 0 0 1 .889 1.37 6.7 6.7 0 0 1 .338 2.3v2.056a6.707 6.707 0 0 1-.338 2.3 3.36 3.36 0 0 1-.889 1.37 3.108 3.108 0 0 1-1.3.686 7.086 7.086 0 0 1-3.397.009z" transform="translate(-1455.495 -975.136)"/>
            <path id="패스_3483" data-name="패스 3483" class="cls-2" d="M1595.753 989.525q-.832-1.65-1.7-3.329a5.031 5.031 0 0 0 2.03-1.643 4.536 4.536 0 0 0 .82-2.643v-.874a4.671 4.671 0 0 0-.453-2.043 4.556 4.556 0 0 0-1.328-1.628 6.524 6.524 0 0 0-2.115-1.051 9.721 9.721 0 0 0-2.82-.378h-7.787v17.88h4.383v-6.83h3.142l3.241 6.83h4.781l-.307-.6q-.964-1.861-1.887-3.691zm-8.971-10.219h2.978a3.518 3.518 0 0 1 2.189.511 1.615 1.615 0 0 1 .6 1.313v.709a1.52 1.52 0 0 1-.628 1.267 4.307 4.307 0 0 1-2.457.509h-2.683z" transform="translate(-1497.879 -975.675)"/>
            <path id="패스_3484" data-name="패스 3484" class="cls-2" d="M1698.266 986.324h8.463v-3.3h-8.463v-3.742h9.025v-3.347h-13.381v17.88h13.568v-3.347h-9.213z" transform="translate(-1573.342 -975.676)"/>
            <path id="패스_3485" data-name="패스 3485" class="cls-2" d="M1760.35 993.22q-.964-1.865-1.887-3.7-.832-1.65-1.7-3.329a5.026 5.026 0 0 0 2.03-1.643 4.531 4.531 0 0 0 .821-2.643v-.874a4.671 4.671 0 0 0-.453-2.043 4.56 4.56 0 0 0-1.328-1.628 6.518 6.518 0 0 0-2.115-1.051 9.724 9.724 0 0 0-2.82-.378h-7.789v17.88h4.383v-6.83h3.142l3.24 6.83h4.782zm-10.857-13.914h2.977a3.52 3.52 0 0 1 2.19.511 1.616 1.616 0 0 1 .6 1.313v.709a1.52 1.52 0 0 1-.628 1.267 4.307 4.307 0 0 1-2.457.509h-2.683z" transform="translate(-1607.991 -975.675)"/>
            <path id="패스_3486" data-name="패스 3486" class="cls-2" d="m1646.522 983.9 7.915-7.96h-5.237l-6.91 7.085v-7.085h-4.383v17.88h4.383v-5.858l1.268-1.219 5.64 7.077h5.525z" transform="translate(-1535.443 -975.676)"/>
            <g id="그룹_2275" data-name="그룹 2275" transform="translate(35.767 1.258)">
                <path id="패스_3487" data-name="패스 3487" class="cls-1" d="M1489.688 979.034h-3.7a16.26 16.26 0 0 0-1.112 0l-7.813 13.724 1.5 2.617a1.054 1.054 0 0 0 1.83 0l6.534-11.506z" transform="translate(-1462.359 -979.024)"/>
                <path id="패스_3488" data-name="패스 3488" d="M1440.856 995.373a1.054 1.054 0 0 0 1.829 0l5.463-9.5.693-1.2-1.056-3.154a1.053 1.053 0 0 0-1.914-.188l-4.1 7.173-5.375-9.482h-4.815z" transform="translate(-1431.581 -979.024)" style="fill:#003660"/>
            </g>
        </g>
    </g>
    <g id="그룹_2278" data-name="그룹 2278" transform="translate(186.727 10.613)">
        <path id="패스_3489" data-name="패스 3489" class="cls-1" d="M1801.233 990.333h3.253l.835 6.026.533 4.2h.071c.249-1.4.516-2.826.782-4.2l1.351-6.026h2.667l1.386 6.026c.267 1.351.5 2.773.764 4.2h.089c.16-1.422.338-2.826.5-4.2l.854-6.026h3.022l-2.293 13.226h-4l-1.191-5.76a38.246 38.246 0 0 1-.515-3.076h-.089c-.16 1-.32 2.062-.516 3.076l-1.155 5.76h-3.929z" transform="translate(-1801.233 -990.333)"/>
        <path id="패스_3490" data-name="패스 3490" class="cls-1" d="M1856.618 990.333h8.391v2.631h-5.209v2.453h4.427v2.667h-4.427v2.809h5.4v2.667h-8.586z" transform="translate(-1838.714 -990.333)"/>
        <path id="패스_3491" data-name="패스 3491" class="cls-1" d="M1891.267 990.333h4.622c2.738 0 4.924.729 4.924 3.271a3.089 3.089 0 0 1-1.724 2.862v.071a3 3 0 0 1 2.346 3.111c0 2.7-2.293 3.911-5.173 3.911h-5zm4.5 5.244c1.351 0 1.955-.586 1.955-1.493 0-.942-.622-1.333-1.955-1.333h-1.315v2.826zm.267 5.547c1.529 0 2.311-.551 2.311-1.689 0-1.084-.765-1.511-2.311-1.511h-1.582v3.2z" transform="translate(-1862.162 -990.333)"/>
    </g>
</svg>
